# xmcd CD database file
#
# Track frame offsets:
#	150
#	18867
#	30382
#
# Disc length: 652 seconds
#
# Revision: 0
# Processed by: cddbd v1.5.1PL0 Copyright (c) Steve Scherf et al.
# Submitted via: CDex 1.51
#
DISCID=13028a03
DTITLE=ラッキィ池田 - インチキじゃない
DYEAR=1900
DGENRE=Vocal
TTITLE0=インチキじゃない
TTITLE1=インチキ
TTITLE2=インチキじゃない（オリジナルカラオケ）
EXTD=
EXTT0=
EXTT1=
EXTT2=
PLAYORDER=
